<svg width="559" height="121" viewBox="0 0 559 121" fill="none" xmlns="http://www.w3.org/2000/svg">
<path d="M172.209 29.2006L173.828 22.725L223.002 72.3034V27.3793C223.002 18.6778 215.919 11.3928 207.015 11.3928H162.901L172.007 20.4991C171.4 21.9156 170.388 23.5345 170.186 23.9392L168.567 27.3793C168.567 27.3793 167.555 29.6053 166.746 32.236C166.746 32.236 163.305 36.6879 160.27 40.9375C159.865 41.3422 159.258 41.747 158.449 41.9493C158.044 41.3422 157.437 40.5328 157.437 40.5328C157.437 40.3304 157.235 40.1281 157.235 39.7233C157.437 39.3186 158.044 38.5092 158.044 38.5092C158.246 38.3068 158.449 37.6997 158.246 37.4974C158.044 37.295 157.842 37.0927 157.639 37.0927C157.639 37.0927 157.437 36.8903 157.437 36.6879C157.437 36.4856 157.235 36.4856 157.235 36.4856L156.83 36.6879H156.628V36.0808C156.628 36.0808 156.628 35.8785 156.425 35.8785C156.425 35.8785 156.02 35.6761 156.02 35.4738C156.02 35.2714 156.223 35.069 156.223 34.6643C156.223 34.2596 155.818 34.462 155.818 34.462C155.818 34.462 154.402 34.462 154.199 34.462C153.997 34.462 153.795 34.2596 153.592 34.0572C153.39 33.8549 153.39 33.8549 153.39 33.8549C153.187 33.6525 151.771 33.4502 151.569 33.4502C151.366 33.4502 150.557 33.2478 150.354 33.2478C150.354 33.2478 149.95 33.0454 149.545 32.8431C149.14 32.6407 147.926 33.6525 147.724 33.8549C147.319 34.0572 146.307 35.2714 145.498 36.4856C145.295 36.6879 145.295 36.8903 145.093 37.295L144.486 38.7115C144.486 38.7115 144.284 38.9139 144.081 38.9139C143.879 39.1163 143.676 39.7233 143.676 39.7233C143.676 39.7233 143.272 41.3422 143.069 42.1517C143.069 42.1517 142.867 43.5682 142.665 44.1753C142.665 44.58 142.26 46.6036 142.26 47.0083C142.26 47.4131 142.058 48.8296 142.058 48.8296C142.058 48.8296 141.855 49.8414 141.855 50.2461C141.855 50.6508 142.058 50.8532 142.26 51.0555L142.665 51.4603C142.665 51.4603 142.26 53.4839 143.069 54.9004C143.069 54.9004 143.069 54.4957 143.474 53.6862C143.474 53.6862 144.081 54.2933 143.676 55.7099C143.676 55.7099 144.486 55.3051 144.688 53.6862L145.093 52.6744C145.093 52.6744 145.295 53.6862 146.307 54.2933C146.307 54.2933 145.498 52.4721 145.498 51.6626C145.498 50.8532 145.498 50.0437 145.498 50.0437C145.498 50.0437 145.902 50.4485 145.7 51.4603C145.7 51.4603 146.51 49.639 145.498 46.4013C145.295 45.5918 144.891 43.9729 144.688 42.7588C144.688 42.5564 144.486 41.3422 144.486 41.1399C144.486 40.9375 144.688 40.7351 144.688 40.7351C144.688 40.7351 145.093 41.1399 145.295 41.1399C145.498 41.3422 145.7 41.747 145.902 42.354C145.902 42.354 146.712 43.3658 148.533 43.9729C148.736 43.9729 149.545 44.1753 150.152 44.1753C150.961 44.1753 151.164 43.9729 151.569 43.7706C151.973 43.7706 152.176 43.9729 152.176 43.9729C152.176 43.9729 152.58 44.3776 152.985 44.9847C152.985 44.9847 153.187 45.3894 152.985 45.7942C151.771 47.0083 149.95 49.0319 149.95 50.8532C147.926 55.1028 145.295 61.7807 144.891 62.5901C144.891 62.5901 144.486 63.3996 144.486 64.0066C144.486 64.4114 144.891 64.8161 145.295 65.2208C145.498 65.4232 146.105 66.2326 146.307 66.435C147.117 67.4468 147.926 68.2562 148.938 69.268L156.02 75.5412C155.413 75.9459 154.806 76.3507 154.199 76.553C154.199 79.3861 158.246 83.0286 158.246 83.0286C161.282 83.2309 162.496 80.3979 162.496 80.3979C162.496 77.7672 160.27 74.3271 160.27 74.3271L160.472 73.5176C160.675 73.1129 161.08 72.5058 161.282 71.8987C161.484 72.3034 161.687 72.9105 161.889 73.3153C161.889 73.3153 163.508 75.5412 165.936 75.9459C166.948 76.7554 172.412 81.005 182.125 82.8262C182.125 83.0286 182.327 83.2309 182.327 83.4333C182.53 84.0404 183.137 86.064 183.339 86.4687C183.744 87.2782 184.351 88.897 185.565 90.7183L188.196 94.9679L188.803 94.7655C189.005 95.1702 189.41 95.7773 189.208 96.3844C189.208 96.3844 187.184 97.8009 189.208 100.432C189.208 100.432 189.612 100.836 190.017 100.634C190.827 100.432 191.838 100.836 193.053 102.05C193.053 102.05 194.671 103.872 196.29 103.669L197.707 103.265C197.707 103.265 198.921 103.062 196.897 100.432C195.481 98.6104 195.278 98.0033 194.469 97.1938C193.66 96.3844 192.85 95.9797 192.85 95.9797L191.434 92.3372L191.636 91.9324L189.815 87.6829L186.577 79.7908C186.375 79.3861 186.577 78.3743 185.97 77.7672C185.97 77.7672 185.768 77.5648 185.565 77.3625C185.16 77.1601 184.756 76.9577 184.553 76.7554L174.638 70.2798C174.638 70.2798 177.875 70.4822 186.172 65.0185C187.184 65.8279 189.208 66.8397 190.827 67.2444C193.862 68.0539 196.897 69.0657 196.897 69.0657C196.897 69.0657 197.1 68.8633 197.302 68.4586C197.302 68.4586 199.123 68.8633 200.54 69.6728C200.742 69.6728 200.742 69.8751 200.742 70.0775C200.742 70.0775 200.54 70.4822 200.54 70.6846C200.54 70.8869 201.349 71.0893 201.349 71.0893C201.349 71.0893 202.563 72.9105 203.575 72.5058C203.575 72.5058 204.992 72.1011 205.194 71.2916C205.194 71.2916 205.397 69.6728 207.825 68.8633C207.825 68.8633 210.051 68.0539 210.658 66.435C210.658 66.435 211.467 64.6137 208.432 65.2208L204.385 66.6373L201.754 67.4468L198.112 65.6255C198.112 65.4232 198.112 65.4232 198.112 65.4232L195.683 64.209C194.267 63.3996 191.029 61.1736 188.803 60.1618C188.196 59.9594 187.589 59.5547 187.589 59.5547C186.577 58.9476 186.779 58.5429 184.756 59.15L170.186 63.1972C169.579 61.983 168.365 59.3523 167.96 57.5311L166.341 52.0674C166.341 52.0674 168.365 50.4485 167.555 48.6272C167.555 48.6272 167.353 48.2225 166.543 47.4131C166.543 47.4131 165.531 46.6036 164.317 45.3894C166.543 41.1399 169.781 35.069 170.59 32.8431C170.793 33.6525 171.805 31.6289 172.209 29.2006ZM159.461 73.1129C159.258 73.3152 158.854 73.5176 158.651 73.72C158.449 73.5176 158.246 73.5176 158.246 73.3153C156.628 71.2916 152.783 65.6255 151.973 64.8161C151.366 64.209 150.354 62.9948 150.152 62.9948C151.164 61.376 152.783 58.5429 154.402 55.7099C154.806 56.1146 155.009 56.7217 155.413 57.1264C155.413 57.1264 157.032 59.7571 158.449 63.6019C159.258 65.4232 159.865 68.4586 159.865 68.4586L160.472 68.6609C160.472 69.0657 160.675 69.8751 160.675 70.4822C160.472 71.6964 160.068 72.7082 159.461 73.1129Z" fill="white"/>
<path d="M0 0.667725V120.668H234.941V0.667725H0ZM229.072 5.52439V115.609H120V5.52439H157.032H229.072Z" fill="#336799"/>
<path d="M265.902 23.9392H275.413L283.305 36.6879L291.197 23.9392H300.708V56.5193H291.804V38.1045L283.508 50.8532H283.305L275.008 38.1045V56.7217H266.104V23.9392H265.902Z" fill="white"/>
<path d="M309.612 40.5327C309.612 31.0218 317.099 23.5344 327.217 23.5344C337.335 23.5344 344.823 31.0218 344.823 40.3304C344.823 49.8413 337.335 57.1263 327.217 57.1263C317.099 57.1263 309.612 49.639 309.612 40.5327ZM335.312 40.5327C335.312 35.6761 331.872 31.6289 327.015 31.6289C322.158 31.6289 318.921 35.6761 318.921 40.3304C318.921 44.9847 322.361 49.0319 327.217 49.0319C332.074 49.0319 335.312 44.9847 335.312 40.5327Z" fill="white"/>
<path d="M353.524 42.354V24.1415H362.631V42.354C362.631 47.0083 365.059 49.4366 368.499 49.4366C371.939 49.4366 374.368 47.2106 374.368 42.7587V24.3438H383.474V42.5563C383.474 53.0791 377.605 57.7334 368.297 57.7334C359.595 57.3287 353.524 52.6744 353.524 42.354Z" fill="white"/>
<path d="M393.794 23.9392H402.091L415.447 41.3422V23.9392H424.35V56.5193H416.458L402.698 38.7116V56.5193H393.794V23.9392Z" fill="white"/>
<path d="M442.968 32.0336H433.052V24.1415H461.383V32.0336H451.669V56.7216H442.766V32.0336H442.968Z" fill="white"/>
<path d="M477.166 23.9392H485.868L499.629 56.7217H489.915L487.487 51.0556H474.94L472.512 56.7217H463.001L477.166 23.9392ZM485.463 43.7706L482.023 34.6643L478.178 43.7706H485.463Z" fill="white"/>
<path d="M507.926 23.9392H516.83V56.5193H507.926V23.9392Z" fill="white"/>
<path d="M527.555 23.9392H535.851L549.207 41.3422V23.9392H558.111V56.5193H550.421L536.661 38.7116V56.5193H527.757V23.9392H527.555Z" fill="white"/>
<path d="M278.044 86.671H271.568V97.1937H265.902V64.6136H278.853C286.341 64.6136 291.4 68.8632 291.4 75.5411C290.995 83.0285 285.126 86.671 278.044 86.671ZM278.246 69.875H271.568V81.612H278.246C282.496 81.612 285.329 79.1836 285.329 75.7435C285.329 71.8986 282.293 69.875 278.246 69.875Z" fill="white"/>
<path d="M322.361 97.3961L314.267 86.0639H306.982V97.3961H301.518V64.6136H316.088C323.575 64.6136 328.229 68.6609 328.229 74.9341C328.229 80.3978 324.992 83.6356 320.337 84.8497L329.241 97.3961H322.361ZM315.683 69.875H307.386V80.8025H315.683C319.73 80.8025 322.361 78.5765 322.361 75.3388C322.361 71.8986 319.933 69.875 315.683 69.875Z" fill="white"/>
<path d="M355.345 97.8009C345.43 97.8009 338.347 90.3135 338.347 81.0049C338.347 71.6963 345.43 64.0066 355.345 64.0066C365.261 64.0066 372.344 71.4939 372.344 80.8025C372.749 90.3135 365.666 97.8009 355.345 97.8009ZM355.345 69.4703C348.87 69.4703 344.216 74.5294 344.216 81.2073C344.216 87.6828 348.87 92.9442 355.345 92.9442C361.821 92.9442 366.475 87.8852 366.475 81.2073C366.475 74.5294 362.023 69.4703 355.345 69.4703Z" fill="white"/>
<path d="M390.151 97.8009C385.092 97.8009 381.855 95.3725 379.629 92.7418L383.474 88.897C385.295 91.3253 387.318 92.7418 389.949 92.7418C392.984 92.7418 395.008 90.5159 395.008 86.2663V64.816H400.877V86.4687C401.281 94.1584 396.627 97.8009 390.151 97.8009Z" fill="white"/>
<path d="M437.706 69.6727H419.292V77.9695H435.48V83.0285H419.292V91.7301H437.909V96.7891H413.625V64.209H437.706V69.6727Z" fill="white"/>
<path d="M464.823 97.8009C455.312 97.8009 448.229 90.5159 448.229 81.0049C448.229 71.8987 455.312 64.0066 465.025 64.0066C470.894 64.0066 474.739 66.2326 477.774 69.0656L473.929 73.3152C471.298 70.8869 468.465 69.268 464.823 69.268C458.55 69.268 453.895 74.327 453.895 81.0049C453.895 87.4805 458.55 92.7418 464.823 92.7418C468.87 92.7418 471.298 91.123 474.334 88.4923L478.179 92.3371C474.536 95.7773 470.691 97.8009 464.823 97.8009Z" fill="white"/>
<path d="M502.462 97.3962H496.796V69.8751H486.475V64.4114H512.985V69.8751H502.664V97.1938H502.462V97.3962Z" fill="white"/>
<path d="M77.0993 88.6947L59.8987 71.494L42.698 88.6947L31.9729 77.7672L48.9712 60.7689L31.7705 43.3659L42.4956 32.6407L59.8987 49.6391L76.897 32.6407L87.6221 43.3659L70.6238 60.7689L88.0268 77.7672L77.0993 88.6947Z" fill="white"/>
</svg>
